<mxfile host="app.diagrams.net" modified="2024-05-20T16:44:44.324Z" agent="Mozilla/5.0 (Windows NT 10.0; Win64; x64; rv:126.0) Gecko/20100101 Firefox/126.0" etag="14TGYnglK1MQU7v5Ordq" version="24.4.4" type="github">
  <diagram name="Page-1" id="UQr17-dW4rWigAgQBZE8">
    <mxGraphModel dx="1366" dy="744" grid="1" gridSize="10" guides="1" tooltips="1" connect="1" arrows="1" fold="1" page="1" pageScale="1" pageWidth="850" pageHeight="1100" math="0" shadow="0">
      <root>
        <mxCell id="0" />
        <mxCell id="1" parent="0" />
        <mxCell id="NiHNyxKCNl_R8OxoTb2U-1" value="" style="endArrow=none;html=1;rounded=0;strokeWidth=3;fontSize=15;" edge="1" parent="1">
          <mxGeometry width="50" height="50" relative="1" as="geometry">
            <mxPoint x="400" y="320" as="sourcePoint" />
            <mxPoint x="400" y="200" as="targetPoint" />
          </mxGeometry>
        </mxCell>
        <mxCell id="NiHNyxKCNl_R8OxoTb2U-2" value="" style="endArrow=none;html=1;rounded=0;strokeWidth=3;fontSize=15;" edge="1" parent="1">
          <mxGeometry width="50" height="50" relative="1" as="geometry">
            <mxPoint x="360" y="280" as="sourcePoint" />
            <mxPoint x="480" y="280" as="targetPoint" />
          </mxGeometry>
        </mxCell>
        <mxCell id="NiHNyxKCNl_R8OxoTb2U-3" value="" style="endArrow=none;html=1;rounded=0;strokeWidth=3;fontSize=15;" edge="1" parent="1">
          <mxGeometry width="50" height="50" relative="1" as="geometry">
            <mxPoint x="440" y="320" as="sourcePoint" />
            <mxPoint x="440" y="200" as="targetPoint" />
          </mxGeometry>
        </mxCell>
        <mxCell id="NiHNyxKCNl_R8OxoTb2U-4" value="" style="endArrow=none;html=1;rounded=0;strokeWidth=3;fontSize=15;" edge="1" parent="1">
          <mxGeometry width="50" height="50" relative="1" as="geometry">
            <mxPoint x="360" y="240" as="sourcePoint" />
            <mxPoint x="480" y="240" as="targetPoint" />
          </mxGeometry>
        </mxCell>
        <mxCell id="NiHNyxKCNl_R8OxoTb2U-5" value="" style="ellipse;whiteSpace=wrap;html=1;perimeterSpacing=0;strokeWidth=4;fillColor=none;strokeColor=#6c8ebf;fontSize=15;" vertex="1" parent="1">
          <mxGeometry x="450" y="250" width="20" height="20" as="geometry" />
        </mxCell>
        <mxCell id="NiHNyxKCNl_R8OxoTb2U-6" value="" style="endArrow=none;html=1;rounded=0;strokeWidth=4;strokeColor=#EA6B66;fontSize=15;" edge="1" parent="1">
          <mxGeometry width="50" height="50" relative="1" as="geometry">
            <mxPoint x="450" y="290" as="sourcePoint" />
            <mxPoint x="470" y="310" as="targetPoint" />
          </mxGeometry>
        </mxCell>
        <mxCell id="NiHNyxKCNl_R8OxoTb2U-7" value="" style="endArrow=none;html=1;rounded=0;strokeWidth=4;strokeColor=#EA6B66;fontSize=15;" edge="1" parent="1">
          <mxGeometry width="50" height="50" relative="1" as="geometry">
            <mxPoint x="450" y="310" as="sourcePoint" />
            <mxPoint x="470" y="290" as="targetPoint" />
          </mxGeometry>
        </mxCell>
        <mxCell id="NiHNyxKCNl_R8OxoTb2U-8" value="" style="endArrow=none;html=1;rounded=0;strokeWidth=4;strokeColor=#EA6B66;fontSize=15;" edge="1" parent="1">
          <mxGeometry width="50" height="50" relative="1" as="geometry">
            <mxPoint x="370" y="210" as="sourcePoint" />
            <mxPoint x="390" y="230" as="targetPoint" />
          </mxGeometry>
        </mxCell>
        <mxCell id="NiHNyxKCNl_R8OxoTb2U-9" value="" style="endArrow=none;html=1;rounded=0;strokeWidth=4;strokeColor=#EA6B66;fontSize=15;" edge="1" parent="1">
          <mxGeometry width="50" height="50" relative="1" as="geometry">
            <mxPoint x="370" y="230" as="sourcePoint" />
            <mxPoint x="390" y="210" as="targetPoint" />
          </mxGeometry>
        </mxCell>
        <mxCell id="NiHNyxKCNl_R8OxoTb2U-10" value="" style="ellipse;whiteSpace=wrap;html=1;perimeterSpacing=0;strokeWidth=4;fillColor=none;strokeColor=#6c8ebf;fontSize=15;" vertex="1" parent="1">
          <mxGeometry x="410" y="250" width="20" height="20" as="geometry" />
        </mxCell>
        <mxCell id="NiHNyxKCNl_R8OxoTb2U-11" value="" style="endArrow=none;html=1;rounded=0;strokeWidth=4;strokeColor=#EA6B66;fontSize=15;" edge="1" parent="1">
          <mxGeometry width="50" height="50" relative="1" as="geometry">
            <mxPoint x="370" y="250" as="sourcePoint" />
            <mxPoint x="390" y="270" as="targetPoint" />
          </mxGeometry>
        </mxCell>
        <mxCell id="NiHNyxKCNl_R8OxoTb2U-12" value="" style="endArrow=none;html=1;rounded=0;strokeWidth=4;strokeColor=#EA6B66;fontSize=15;" edge="1" parent="1">
          <mxGeometry width="50" height="50" relative="1" as="geometry">
            <mxPoint x="370" y="270" as="sourcePoint" />
            <mxPoint x="390" y="250" as="targetPoint" />
          </mxGeometry>
        </mxCell>
        <mxCell id="NiHNyxKCNl_R8OxoTb2U-13" value="" style="rounded=1;whiteSpace=wrap;html=1;fillColor=none;strokeWidth=5;strokeColor=#97D077;" vertex="1" parent="1">
          <mxGeometry x="350" y="190" width="140" height="140" as="geometry" />
        </mxCell>
        <mxCell id="NiHNyxKCNl_R8OxoTb2U-15" value="" style="endArrow=none;html=1;rounded=0;strokeWidth=3;fontSize=15;" edge="1" parent="1">
          <mxGeometry width="50" height="50" relative="1" as="geometry">
            <mxPoint x="320" y="560" as="sourcePoint" />
            <mxPoint x="320" y="440" as="targetPoint" />
          </mxGeometry>
        </mxCell>
        <mxCell id="NiHNyxKCNl_R8OxoTb2U-16" value="" style="endArrow=none;html=1;rounded=0;strokeWidth=3;fontSize=15;" edge="1" parent="1">
          <mxGeometry width="50" height="50" relative="1" as="geometry">
            <mxPoint x="280" y="520" as="sourcePoint" />
            <mxPoint x="400" y="520" as="targetPoint" />
          </mxGeometry>
        </mxCell>
        <mxCell id="NiHNyxKCNl_R8OxoTb2U-17" value="" style="endArrow=none;html=1;rounded=0;strokeWidth=3;fontSize=15;" edge="1" parent="1">
          <mxGeometry width="50" height="50" relative="1" as="geometry">
            <mxPoint x="360" y="560" as="sourcePoint" />
            <mxPoint x="360" y="440" as="targetPoint" />
          </mxGeometry>
        </mxCell>
        <mxCell id="NiHNyxKCNl_R8OxoTb2U-18" value="" style="endArrow=none;html=1;rounded=0;strokeWidth=3;fontSize=15;" edge="1" parent="1">
          <mxGeometry width="50" height="50" relative="1" as="geometry">
            <mxPoint x="280" y="480" as="sourcePoint" />
            <mxPoint x="400" y="480" as="targetPoint" />
          </mxGeometry>
        </mxCell>
        <mxCell id="NiHNyxKCNl_R8OxoTb2U-19" value="" style="ellipse;whiteSpace=wrap;html=1;perimeterSpacing=0;strokeWidth=4;fillColor=none;strokeColor=#6c8ebf;fontSize=15;" vertex="1" parent="1">
          <mxGeometry x="370" y="490" width="20" height="20" as="geometry" />
        </mxCell>
        <mxCell id="NiHNyxKCNl_R8OxoTb2U-20" value="" style="endArrow=none;html=1;rounded=0;strokeWidth=4;strokeColor=#EA6B66;fontSize=15;" edge="1" parent="1">
          <mxGeometry width="50" height="50" relative="1" as="geometry">
            <mxPoint x="370" y="530" as="sourcePoint" />
            <mxPoint x="390" y="550" as="targetPoint" />
          </mxGeometry>
        </mxCell>
        <mxCell id="NiHNyxKCNl_R8OxoTb2U-21" value="" style="endArrow=none;html=1;rounded=0;strokeWidth=4;strokeColor=#EA6B66;fontSize=15;" edge="1" parent="1">
          <mxGeometry width="50" height="50" relative="1" as="geometry">
            <mxPoint x="370" y="550" as="sourcePoint" />
            <mxPoint x="390" y="530" as="targetPoint" />
          </mxGeometry>
        </mxCell>
        <mxCell id="NiHNyxKCNl_R8OxoTb2U-22" value="" style="endArrow=none;html=1;rounded=0;strokeWidth=4;strokeColor=#EA6B66;fontSize=15;" edge="1" parent="1">
          <mxGeometry width="50" height="50" relative="1" as="geometry">
            <mxPoint x="290" y="450" as="sourcePoint" />
            <mxPoint x="310" y="470" as="targetPoint" />
          </mxGeometry>
        </mxCell>
        <mxCell id="NiHNyxKCNl_R8OxoTb2U-23" value="" style="endArrow=none;html=1;rounded=0;strokeWidth=4;strokeColor=#EA6B66;fontSize=15;" edge="1" parent="1">
          <mxGeometry width="50" height="50" relative="1" as="geometry">
            <mxPoint x="290" y="470" as="sourcePoint" />
            <mxPoint x="310" y="450" as="targetPoint" />
          </mxGeometry>
        </mxCell>
        <mxCell id="NiHNyxKCNl_R8OxoTb2U-24" value="" style="ellipse;whiteSpace=wrap;html=1;perimeterSpacing=0;strokeWidth=4;fillColor=none;strokeColor=#6c8ebf;fontSize=15;" vertex="1" parent="1">
          <mxGeometry x="330" y="490" width="20" height="20" as="geometry" />
        </mxCell>
        <mxCell id="NiHNyxKCNl_R8OxoTb2U-25" value="" style="endArrow=none;html=1;rounded=0;strokeWidth=4;strokeColor=#EA6B66;fontSize=15;" edge="1" parent="1">
          <mxGeometry width="50" height="50" relative="1" as="geometry">
            <mxPoint x="290" y="490" as="sourcePoint" />
            <mxPoint x="310" y="510" as="targetPoint" />
          </mxGeometry>
        </mxCell>
        <mxCell id="NiHNyxKCNl_R8OxoTb2U-26" value="" style="endArrow=none;html=1;rounded=0;strokeWidth=4;strokeColor=#EA6B66;fontSize=15;" edge="1" parent="1">
          <mxGeometry width="50" height="50" relative="1" as="geometry">
            <mxPoint x="290" y="510" as="sourcePoint" />
            <mxPoint x="310" y="490" as="targetPoint" />
          </mxGeometry>
        </mxCell>
        <mxCell id="NiHNyxKCNl_R8OxoTb2U-41" value="" style="endArrow=none;html=1;rounded=0;strokeWidth=3;fontSize=15;" edge="1" parent="1">
          <mxGeometry width="50" height="50" relative="1" as="geometry">
            <mxPoint x="160" y="560" as="sourcePoint" />
            <mxPoint x="160" y="440" as="targetPoint" />
          </mxGeometry>
        </mxCell>
        <mxCell id="NiHNyxKCNl_R8OxoTb2U-42" value="" style="endArrow=none;html=1;rounded=0;strokeWidth=3;fontSize=15;" edge="1" parent="1">
          <mxGeometry width="50" height="50" relative="1" as="geometry">
            <mxPoint x="120" y="520" as="sourcePoint" />
            <mxPoint x="240" y="520" as="targetPoint" />
          </mxGeometry>
        </mxCell>
        <mxCell id="NiHNyxKCNl_R8OxoTb2U-43" value="" style="endArrow=none;html=1;rounded=0;strokeWidth=3;fontSize=15;" edge="1" parent="1">
          <mxGeometry width="50" height="50" relative="1" as="geometry">
            <mxPoint x="200" y="560" as="sourcePoint" />
            <mxPoint x="200" y="440" as="targetPoint" />
          </mxGeometry>
        </mxCell>
        <mxCell id="NiHNyxKCNl_R8OxoTb2U-44" value="" style="endArrow=none;html=1;rounded=0;strokeWidth=3;fontSize=15;" edge="1" parent="1">
          <mxGeometry width="50" height="50" relative="1" as="geometry">
            <mxPoint x="120" y="480" as="sourcePoint" />
            <mxPoint x="240" y="480" as="targetPoint" />
          </mxGeometry>
        </mxCell>
        <mxCell id="NiHNyxKCNl_R8OxoTb2U-45" value="" style="ellipse;whiteSpace=wrap;html=1;perimeterSpacing=0;strokeWidth=4;fillColor=none;strokeColor=#6c8ebf;fontSize=15;" vertex="1" parent="1">
          <mxGeometry x="210" y="490" width="20" height="20" as="geometry" />
        </mxCell>
        <mxCell id="NiHNyxKCNl_R8OxoTb2U-46" value="" style="endArrow=none;html=1;rounded=0;strokeWidth=4;strokeColor=#EA6B66;fontSize=15;" edge="1" parent="1">
          <mxGeometry width="50" height="50" relative="1" as="geometry">
            <mxPoint x="210" y="530" as="sourcePoint" />
            <mxPoint x="230" y="550" as="targetPoint" />
          </mxGeometry>
        </mxCell>
        <mxCell id="NiHNyxKCNl_R8OxoTb2U-47" value="" style="endArrow=none;html=1;rounded=0;strokeWidth=4;strokeColor=#EA6B66;fontSize=15;" edge="1" parent="1">
          <mxGeometry width="50" height="50" relative="1" as="geometry">
            <mxPoint x="210" y="550" as="sourcePoint" />
            <mxPoint x="230" y="530" as="targetPoint" />
          </mxGeometry>
        </mxCell>
        <mxCell id="NiHNyxKCNl_R8OxoTb2U-48" value="" style="endArrow=none;html=1;rounded=0;strokeWidth=4;strokeColor=#EA6B66;fontSize=15;" edge="1" parent="1">
          <mxGeometry width="50" height="50" relative="1" as="geometry">
            <mxPoint x="130" y="450" as="sourcePoint" />
            <mxPoint x="150" y="470" as="targetPoint" />
          </mxGeometry>
        </mxCell>
        <mxCell id="NiHNyxKCNl_R8OxoTb2U-49" value="" style="endArrow=none;html=1;rounded=0;strokeWidth=4;strokeColor=#EA6B66;fontSize=15;" edge="1" parent="1">
          <mxGeometry width="50" height="50" relative="1" as="geometry">
            <mxPoint x="130" y="470" as="sourcePoint" />
            <mxPoint x="150" y="450" as="targetPoint" />
          </mxGeometry>
        </mxCell>
        <mxCell id="NiHNyxKCNl_R8OxoTb2U-50" value="" style="ellipse;whiteSpace=wrap;html=1;perimeterSpacing=0;strokeWidth=4;fillColor=none;strokeColor=#6c8ebf;fontSize=15;" vertex="1" parent="1">
          <mxGeometry x="170" y="490" width="20" height="20" as="geometry" />
        </mxCell>
        <mxCell id="NiHNyxKCNl_R8OxoTb2U-51" value="" style="endArrow=none;html=1;rounded=0;strokeWidth=4;strokeColor=#EA6B66;fontSize=15;" edge="1" parent="1">
          <mxGeometry width="50" height="50" relative="1" as="geometry">
            <mxPoint x="130" y="490" as="sourcePoint" />
            <mxPoint x="150" y="510" as="targetPoint" />
          </mxGeometry>
        </mxCell>
        <mxCell id="NiHNyxKCNl_R8OxoTb2U-52" value="" style="endArrow=none;html=1;rounded=0;strokeWidth=4;strokeColor=#EA6B66;fontSize=15;" edge="1" parent="1">
          <mxGeometry width="50" height="50" relative="1" as="geometry">
            <mxPoint x="130" y="510" as="sourcePoint" />
            <mxPoint x="150" y="490" as="targetPoint" />
          </mxGeometry>
        </mxCell>
        <mxCell id="NiHNyxKCNl_R8OxoTb2U-54" value="" style="endArrow=none;html=1;rounded=0;strokeWidth=3;fontSize=15;" edge="1" parent="1">
          <mxGeometry width="50" height="50" relative="1" as="geometry">
            <mxPoint x="480" y="560" as="sourcePoint" />
            <mxPoint x="480" y="440" as="targetPoint" />
          </mxGeometry>
        </mxCell>
        <mxCell id="NiHNyxKCNl_R8OxoTb2U-55" value="" style="endArrow=none;html=1;rounded=0;strokeWidth=3;fontSize=15;" edge="1" parent="1">
          <mxGeometry width="50" height="50" relative="1" as="geometry">
            <mxPoint x="440" y="520" as="sourcePoint" />
            <mxPoint x="560" y="520" as="targetPoint" />
          </mxGeometry>
        </mxCell>
        <mxCell id="NiHNyxKCNl_R8OxoTb2U-56" value="" style="endArrow=none;html=1;rounded=0;strokeWidth=3;fontSize=15;" edge="1" parent="1">
          <mxGeometry width="50" height="50" relative="1" as="geometry">
            <mxPoint x="520" y="560" as="sourcePoint" />
            <mxPoint x="520" y="440" as="targetPoint" />
          </mxGeometry>
        </mxCell>
        <mxCell id="NiHNyxKCNl_R8OxoTb2U-57" value="" style="endArrow=none;html=1;rounded=0;strokeWidth=3;fontSize=15;" edge="1" parent="1">
          <mxGeometry width="50" height="50" relative="1" as="geometry">
            <mxPoint x="440" y="480" as="sourcePoint" />
            <mxPoint x="560" y="480" as="targetPoint" />
          </mxGeometry>
        </mxCell>
        <mxCell id="NiHNyxKCNl_R8OxoTb2U-58" value="" style="ellipse;whiteSpace=wrap;html=1;perimeterSpacing=0;strokeWidth=4;fillColor=none;strokeColor=#6c8ebf;fontSize=15;" vertex="1" parent="1">
          <mxGeometry x="530" y="490" width="20" height="20" as="geometry" />
        </mxCell>
        <mxCell id="NiHNyxKCNl_R8OxoTb2U-59" value="" style="endArrow=none;html=1;rounded=0;strokeWidth=4;strokeColor=#EA6B66;fontSize=15;" edge="1" parent="1">
          <mxGeometry width="50" height="50" relative="1" as="geometry">
            <mxPoint x="530" y="530" as="sourcePoint" />
            <mxPoint x="550" y="550" as="targetPoint" />
          </mxGeometry>
        </mxCell>
        <mxCell id="NiHNyxKCNl_R8OxoTb2U-60" value="" style="endArrow=none;html=1;rounded=0;strokeWidth=4;strokeColor=#EA6B66;fontSize=15;" edge="1" parent="1">
          <mxGeometry width="50" height="50" relative="1" as="geometry">
            <mxPoint x="530" y="550" as="sourcePoint" />
            <mxPoint x="550" y="530" as="targetPoint" />
          </mxGeometry>
        </mxCell>
        <mxCell id="NiHNyxKCNl_R8OxoTb2U-61" value="" style="endArrow=none;html=1;rounded=0;strokeWidth=4;strokeColor=#EA6B66;fontSize=15;" edge="1" parent="1">
          <mxGeometry width="50" height="50" relative="1" as="geometry">
            <mxPoint x="450" y="450" as="sourcePoint" />
            <mxPoint x="470" y="470" as="targetPoint" />
          </mxGeometry>
        </mxCell>
        <mxCell id="NiHNyxKCNl_R8OxoTb2U-62" value="" style="endArrow=none;html=1;rounded=0;strokeWidth=4;strokeColor=#EA6B66;fontSize=15;" edge="1" parent="1">
          <mxGeometry width="50" height="50" relative="1" as="geometry">
            <mxPoint x="450" y="470" as="sourcePoint" />
            <mxPoint x="470" y="450" as="targetPoint" />
          </mxGeometry>
        </mxCell>
        <mxCell id="NiHNyxKCNl_R8OxoTb2U-63" value="" style="ellipse;whiteSpace=wrap;html=1;perimeterSpacing=0;strokeWidth=4;fillColor=none;strokeColor=#6c8ebf;fontSize=15;" vertex="1" parent="1">
          <mxGeometry x="490" y="490" width="20" height="20" as="geometry" />
        </mxCell>
        <mxCell id="NiHNyxKCNl_R8OxoTb2U-64" value="" style="endArrow=none;html=1;rounded=0;strokeWidth=4;strokeColor=#EA6B66;fontSize=15;" edge="1" parent="1">
          <mxGeometry width="50" height="50" relative="1" as="geometry">
            <mxPoint x="450" y="490" as="sourcePoint" />
            <mxPoint x="470" y="510" as="targetPoint" />
          </mxGeometry>
        </mxCell>
        <mxCell id="NiHNyxKCNl_R8OxoTb2U-65" value="" style="endArrow=none;html=1;rounded=0;strokeWidth=4;strokeColor=#EA6B66;fontSize=15;" edge="1" parent="1">
          <mxGeometry width="50" height="50" relative="1" as="geometry">
            <mxPoint x="450" y="510" as="sourcePoint" />
            <mxPoint x="470" y="490" as="targetPoint" />
          </mxGeometry>
        </mxCell>
        <mxCell id="NiHNyxKCNl_R8OxoTb2U-67" value="" style="ellipse;whiteSpace=wrap;html=1;perimeterSpacing=0;strokeWidth=4;fillColor=none;strokeColor=#6c8ebf;fontSize=15;" vertex="1" parent="1">
          <mxGeometry x="130" y="530" width="20" height="20" as="geometry" />
        </mxCell>
        <mxCell id="NiHNyxKCNl_R8OxoTb2U-68" value="" style="ellipse;whiteSpace=wrap;html=1;perimeterSpacing=0;strokeWidth=4;fillColor=none;strokeColor=#6c8ebf;fontSize=15;" vertex="1" parent="1">
          <mxGeometry x="330" y="530" width="20" height="20" as="geometry" />
        </mxCell>
        <mxCell id="NiHNyxKCNl_R8OxoTb2U-69" value="" style="ellipse;whiteSpace=wrap;html=1;perimeterSpacing=0;strokeWidth=4;fillColor=none;strokeColor=#6c8ebf;fontSize=15;" vertex="1" parent="1">
          <mxGeometry x="530" y="450" width="20" height="20" as="geometry" />
        </mxCell>
        <mxCell id="NiHNyxKCNl_R8OxoTb2U-74" value="" style="endArrow=classic;html=1;rounded=0;strokeWidth=4;" edge="1" parent="1">
          <mxGeometry width="50" height="50" relative="1" as="geometry">
            <mxPoint x="420" y="340" as="sourcePoint" />
            <mxPoint x="180" y="430" as="targetPoint" />
          </mxGeometry>
        </mxCell>
        <mxCell id="NiHNyxKCNl_R8OxoTb2U-75" value="" style="endArrow=classic;html=1;rounded=0;strokeWidth=4;" edge="1" parent="1">
          <mxGeometry width="50" height="50" relative="1" as="geometry">
            <mxPoint x="420" y="340" as="sourcePoint" />
            <mxPoint x="500" y="430" as="targetPoint" />
          </mxGeometry>
        </mxCell>
        <mxCell id="NiHNyxKCNl_R8OxoTb2U-76" value="" style="endArrow=classic;html=1;rounded=0;strokeWidth=4;" edge="1" parent="1">
          <mxGeometry width="50" height="50" relative="1" as="geometry">
            <mxPoint x="420" y="340" as="sourcePoint" />
            <mxPoint x="340" y="430" as="targetPoint" />
          </mxGeometry>
        </mxCell>
        <mxCell id="NiHNyxKCNl_R8OxoTb2U-77" value="" style="rounded=1;whiteSpace=wrap;html=1;fillColor=none;strokeWidth=5;strokeColor=#FFD966;" vertex="1" parent="1">
          <mxGeometry x="120" y="520" width="40" height="40" as="geometry" />
        </mxCell>
        <mxCell id="NiHNyxKCNl_R8OxoTb2U-78" value="" style="rounded=1;whiteSpace=wrap;html=1;fillColor=none;strokeWidth=5;strokeColor=#FFD966;" vertex="1" parent="1">
          <mxGeometry x="320" y="520" width="40" height="40" as="geometry" />
        </mxCell>
        <mxCell id="NiHNyxKCNl_R8OxoTb2U-79" value="" style="rounded=1;whiteSpace=wrap;html=1;fillColor=none;strokeWidth=5;strokeColor=#FFD966;" vertex="1" parent="1">
          <mxGeometry x="520" y="440" width="40" height="40" as="geometry" />
        </mxCell>
        <mxCell id="NiHNyxKCNl_R8OxoTb2U-81" value="" style="endArrow=none;html=1;rounded=0;strokeWidth=3;fontSize=15;" edge="1" parent="1">
          <mxGeometry width="50" height="50" relative="1" as="geometry">
            <mxPoint x="640" y="560" as="sourcePoint" />
            <mxPoint x="640" y="440" as="targetPoint" />
          </mxGeometry>
        </mxCell>
        <mxCell id="NiHNyxKCNl_R8OxoTb2U-82" value="" style="endArrow=none;html=1;rounded=0;strokeWidth=3;fontSize=15;" edge="1" parent="1">
          <mxGeometry width="50" height="50" relative="1" as="geometry">
            <mxPoint x="600" y="520" as="sourcePoint" />
            <mxPoint x="720" y="520" as="targetPoint" />
          </mxGeometry>
        </mxCell>
        <mxCell id="NiHNyxKCNl_R8OxoTb2U-83" value="" style="endArrow=none;html=1;rounded=0;strokeWidth=3;fontSize=15;" edge="1" parent="1">
          <mxGeometry width="50" height="50" relative="1" as="geometry">
            <mxPoint x="680" y="560" as="sourcePoint" />
            <mxPoint x="680" y="440" as="targetPoint" />
          </mxGeometry>
        </mxCell>
        <mxCell id="NiHNyxKCNl_R8OxoTb2U-84" value="" style="endArrow=none;html=1;rounded=0;strokeWidth=3;fontSize=15;" edge="1" parent="1">
          <mxGeometry width="50" height="50" relative="1" as="geometry">
            <mxPoint x="600" y="480" as="sourcePoint" />
            <mxPoint x="720" y="480" as="targetPoint" />
          </mxGeometry>
        </mxCell>
        <mxCell id="NiHNyxKCNl_R8OxoTb2U-85" value="" style="ellipse;whiteSpace=wrap;html=1;perimeterSpacing=0;strokeWidth=4;fillColor=none;strokeColor=#6c8ebf;fontSize=15;" vertex="1" parent="1">
          <mxGeometry x="690" y="490" width="20" height="20" as="geometry" />
        </mxCell>
        <mxCell id="NiHNyxKCNl_R8OxoTb2U-86" value="" style="endArrow=none;html=1;rounded=0;strokeWidth=4;strokeColor=#EA6B66;fontSize=15;" edge="1" parent="1">
          <mxGeometry width="50" height="50" relative="1" as="geometry">
            <mxPoint x="690" y="530" as="sourcePoint" />
            <mxPoint x="710" y="550" as="targetPoint" />
          </mxGeometry>
        </mxCell>
        <mxCell id="NiHNyxKCNl_R8OxoTb2U-87" value="" style="endArrow=none;html=1;rounded=0;strokeWidth=4;strokeColor=#EA6B66;fontSize=15;" edge="1" parent="1">
          <mxGeometry width="50" height="50" relative="1" as="geometry">
            <mxPoint x="690" y="550" as="sourcePoint" />
            <mxPoint x="710" y="530" as="targetPoint" />
          </mxGeometry>
        </mxCell>
        <mxCell id="NiHNyxKCNl_R8OxoTb2U-88" value="" style="endArrow=none;html=1;rounded=0;strokeWidth=4;strokeColor=#EA6B66;fontSize=15;" edge="1" parent="1">
          <mxGeometry width="50" height="50" relative="1" as="geometry">
            <mxPoint x="610" y="450" as="sourcePoint" />
            <mxPoint x="630" y="470" as="targetPoint" />
          </mxGeometry>
        </mxCell>
        <mxCell id="NiHNyxKCNl_R8OxoTb2U-89" value="" style="endArrow=none;html=1;rounded=0;strokeWidth=4;strokeColor=#EA6B66;fontSize=15;" edge="1" parent="1">
          <mxGeometry width="50" height="50" relative="1" as="geometry">
            <mxPoint x="610" y="470" as="sourcePoint" />
            <mxPoint x="630" y="450" as="targetPoint" />
          </mxGeometry>
        </mxCell>
        <mxCell id="NiHNyxKCNl_R8OxoTb2U-90" value="" style="ellipse;whiteSpace=wrap;html=1;perimeterSpacing=0;strokeWidth=4;fillColor=none;strokeColor=#6c8ebf;fontSize=15;" vertex="1" parent="1">
          <mxGeometry x="650" y="490" width="20" height="20" as="geometry" />
        </mxCell>
        <mxCell id="NiHNyxKCNl_R8OxoTb2U-91" value="" style="endArrow=none;html=1;rounded=0;strokeWidth=4;strokeColor=#EA6B66;fontSize=15;" edge="1" parent="1">
          <mxGeometry width="50" height="50" relative="1" as="geometry">
            <mxPoint x="610" y="490" as="sourcePoint" />
            <mxPoint x="630" y="510" as="targetPoint" />
          </mxGeometry>
        </mxCell>
        <mxCell id="NiHNyxKCNl_R8OxoTb2U-92" value="" style="endArrow=none;html=1;rounded=0;strokeWidth=4;strokeColor=#EA6B66;fontSize=15;" edge="1" parent="1">
          <mxGeometry width="50" height="50" relative="1" as="geometry">
            <mxPoint x="610" y="510" as="sourcePoint" />
            <mxPoint x="630" y="490" as="targetPoint" />
          </mxGeometry>
        </mxCell>
        <mxCell id="NiHNyxKCNl_R8OxoTb2U-93" value="" style="ellipse;whiteSpace=wrap;html=1;perimeterSpacing=0;strokeWidth=4;fillColor=none;strokeColor=#6c8ebf;fontSize=15;" vertex="1" parent="1">
          <mxGeometry x="650" y="450" width="20" height="20" as="geometry" />
        </mxCell>
        <mxCell id="NiHNyxKCNl_R8OxoTb2U-94" value="" style="rounded=1;whiteSpace=wrap;html=1;fillColor=none;strokeWidth=5;strokeColor=#FFD966;" vertex="1" parent="1">
          <mxGeometry x="640" y="440" width="40" height="40" as="geometry" />
        </mxCell>
        <mxCell id="NiHNyxKCNl_R8OxoTb2U-95" value="" style="endArrow=classic;html=1;rounded=0;strokeWidth=4;" edge="1" parent="1">
          <mxGeometry width="50" height="50" relative="1" as="geometry">
            <mxPoint x="420" y="340" as="sourcePoint" />
            <mxPoint x="660" y="430" as="targetPoint" />
          </mxGeometry>
        </mxCell>
      </root>
    </mxGraphModel>
  </diagram>
</mxfile>
